<?xml version="1.0" encoding="UTF-8" standalone="no"?>
<!-- Created with Inkscape (http://www.inkscape.org/) -->

<svg
   xmlns:dc="http://purl.org/dc/elements/1.1/"
   xmlns:cc="http://creativecommons.org/ns#"
   xmlns:rdf="http://www.w3.org/1999/02/22-rdf-syntax-ns#"
   xmlns:svg="http://www.w3.org/2000/svg"
   xmlns="http://www.w3.org/2000/svg"
   xmlns:sodipodi="http://sodipodi.sourceforge.net/DTD/sodipodi-0.dtd"
   xmlns:inkscape="http://www.inkscape.org/namespaces/inkscape"
   width="266.27359"
   height="50"
   id="svg2"
   version="1.1"
   inkscape:version="0.48.2 r9819"
   sodipodi:docname="site-id.svg">
  <defs
     id="defs4" />
  <sodipodi:namedview
     id="base"
     pagecolor="#ffffff"
     bordercolor="#666666"
     borderopacity="1.0"
     inkscape:pageopacity="0.0"
     inkscape:pageshadow="2"
     inkscape:zoom="4.2307692"
     inkscape:cx="295.20718"
     inkscape:cy="2.4833008"
     inkscape:document-units="px"
     inkscape:current-layer="layer1"
     showgrid="false"
     fit-margin-top="0"
     fit-margin-left="0"
     fit-margin-right="0"
     fit-margin-bottom="0"
     inkscape:window-width="970"
     inkscape:window-height="768"
     inkscape:window-x="0"
     inkscape:window-y="0"
     inkscape:window-maximized="0" />
  <metadata
     id="metadata7">
    <rdf:RDF>
      <cc:Work
         rdf:about="">
        <dc:format>image/svg+xml</dc:format>
        <dc:type
           rdf:resource="http://purl.org/dc/dcmitype/StillImage" />
        <dc:title></dc:title>
      </cc:Work>
    </rdf:RDF>
  </metadata>
  <g
     inkscape:label="Layer 1"
     inkscape:groupmode="layer"
     id="layer1"
     transform="translate(-27.487926,-475.4807)">
    <path
       style="fill:#f1f1f1;fill-opacity:1;stroke:none"
       inkscape:connector-curvature="0"
       d="m 68.96674,488.46692 4.198175,7.06206 -8.191171,-0.14495 c -0.49223,-2.87717 1.113418,-5.79395 3.992996,-6.91711 z M 49.756976,525.4807 c -0.816069,0 -1.619394,-0.21533 -2.321452,-0.62092 l -17.624323,-10.1768 c -1.434431,-0.82978 -2.326098,-2.37106 -2.323268,-4.02275 l 0,-20.35946 c 0,-1.65451 0.888837,-3.19539 2.320841,-4.02174 L 47.43755,476.10224 c 0.704882,-0.40661 1.508212,-0.62154 2.319426,-0.62154 0.812831,0 1.613324,0.21493 2.321245,0.62154 l 14.171265,8.18623 c -5.152497,-0.39932 -9.032303,6.28264 -6.415516,11.03064 l -10.079826,-5.83922 -9.524326,5.49732 0,11.0074 9.528976,5.50034 3.731218,-2.13937 c 2.86199,-1.64176 6.940698,-3.98089 8.617091,-4.93422 1.17993,-0.67511 2.396451,-1.01701 3.611349,-1.01701 2.933544,0 5.521221,2.04757 6.291804,4.9769 0.714585,2.71195 -0.395808,5.27611 -2.896757,6.69023 -3.555351,2.01462 -17.035078,9.79809 -17.035078,9.79809 -0.708121,0.40661 -1.508614,0.62113 -2.321445,0.62113 z m 0,0"
       id="Shape" />
    <g
       id="text2985"
       style="font-size:64.38939667px;font-style:normal;font-weight:normal;line-height:125%;letter-spacing:0px;word-spacing:0px;fill:#f1f1f1;fill-opacity:1;stroke:none;font-family:Sans"
       transform="matrix(0.55626119,0,0,0.55626119,12.197459,234.55376)">
      <path
         inkscape:connector-curvature="0"
         id="path3919"
         style="font-variant:normal;font-stretch:normal;text-align:start;line-height:125%;writing-mode:lr-tb;text-anchor:start;fill:#f1f1f1;font-family:Ubuntu;-inkscape-font-specification:Ubuntu"
         d="m 159.79541,503.52727 c -3.13364,0 -5.98823,-0.51511 -8.56379,-1.54534 -2.57559,-1.03023 -4.78629,-2.53265 -6.6321,-4.50726 -1.84584,-1.9746 -3.28387,-4.39993 -4.31409,-7.276 -0.98731,-2.91897 -1.48096,-6.24576 -1.48096,-9.98036 0,-3.73456 0.55804,-7.03988 1.67412,-9.91597 1.15901,-2.91895 2.70435,-5.36574 4.63604,-7.34039 1.93167,-1.97456 4.1853,-3.47698 6.76089,-4.50725 2.57555,-1.03019 5.32283,-1.5453 8.24184,-1.54535 1.8458,5e-5 3.49846,0.12882 4.95798,0.38634 1.50239,0.2576 2.79018,0.55808 3.86337,0.90145 1.11605,0.34345 2.0175,0.68686 2.70435,1.03023 0.68679,0.34345 1.15897,0.60101 1.41657,0.77267 l -1.8029,5.15115 c -0.38638,-0.25752 -0.94442,-0.53654 -1.67413,-0.83706 -0.72978,-0.30045 -1.56684,-0.60093 -2.51118,-0.90145 -0.90149,-0.30045 -1.91025,-0.53654 -3.02631,-0.70828 -1.07318,-0.2146 -2.1678,-0.32191 -3.28386,-0.32195 -2.36096,4e-5 -4.48581,0.40784 -6.37455,1.2234 -1.88877,0.81563 -3.4985,1.99611 -4.8292,3.54141 -1.33073,1.54538 -2.36096,3.43414 -3.09069,5.66627 -0.68683,2.18927 -1.03024,4.65753 -1.03023,7.40478 -1e-5,2.66145 0.30047,5.08678 0.90145,7.276 0.64388,2.18926 1.58826,4.07801 2.83313,5.66627 1.24485,1.54535 2.79019,2.74729 4.63604,3.60581 1.88873,0.85853 4.07797,1.28779 6.56772,1.28778 2.87603,10e-6 5.25843,-0.30047 7.14722,-0.90145 1.88872,-0.60096 3.30529,-1.13754 4.2497,-1.60973 l 1.60974,5.15115 c -0.30053,0.21463 -0.8371,0.49365 -1.60974,0.83706 -0.77271,0.30049 -1.73855,0.60097 -2.89752,0.90145 -1.15904,0.30049 -2.51122,0.55804 -4.05653,0.77268 -1.54538,0.21463 -3.2195,0.32194 -5.02238,0.32194" />
      <path
         inkscape:connector-curvature="0"
         id="path3921"
         style="font-variant:normal;font-stretch:normal;text-align:start;line-height:125%;writing-mode:lr-tb;text-anchor:start;fill:#f1f1f1;font-family:Ubuntu;-inkscape-font-specification:Ubuntu"
         d="m 180.08713,502.56143 0,-48.93594 5.98821,-1.03023 0,17.12758 c 1.11607,-0.42923 2.29655,-0.75118 3.54142,-0.96584 1.28777,-0.25752 2.5541,-0.3863 3.79897,-0.38634 2.66141,4e-5 4.87211,0.38637 6.63211,1.15901 1.75995,0.72978 3.15505,1.78147 4.18531,3.15508 1.07313,1.33074 1.82434,2.94048 2.25363,4.82921 0.42923,1.88878 0.64386,3.9707 0.6439,6.24577 l 0,18.8017 -5.98822,0 0,-17.51391 c -2e-5,-2.06045 -0.15027,-3.82042 -0.45072,-5.27993 -0.25759,-1.45947 -0.70831,-2.63994 -1.35218,-3.54142 -0.64392,-0.90143 -1.50244,-1.54532 -2.57558,-1.93168 -1.07317,-0.42924 -2.40389,-0.64387 -3.99214,-0.6439 -0.64391,3e-5 -1.30927,0.043 -1.99607,0.12878 -0.68684,0.0859 -1.35219,0.1932 -1.99607,0.32195 -0.60098,0.0859 -1.15902,0.1932 -1.67413,0.32195 -0.4722,0.1288 -0.81561,0.23612 -1.03023,0.32194 l 0,27.81622 -5.98821,0" />
      <path
         inkscape:connector-curvature="0"
         id="path3923"
         style="font-variant:normal;font-stretch:normal;text-align:start;line-height:125%;writing-mode:lr-tb;text-anchor:start;fill:#f1f1f1;font-family:Ubuntu;-inkscape-font-specification:Ubuntu"
         d="m 214.94191,485.88458 c 0,-2.96189 0.42926,-5.53747 1.28779,-7.72673 0.85852,-2.23214 1.99606,-4.07797 3.41264,-5.53749 1.41655,-1.45946 3.04775,-2.55408 4.89359,-3.28386 1.84581,-0.72971 3.73457,-1.09458 5.66627,-1.09462 4.50723,4e-5 7.96279,1.4166 10.36669,4.2497 2.40384,2.79024 3.60577,7.0614 3.60581,12.81349 -4e-5,0.25758 -4e-5,0.60099 0,1.03023 -4e-5,0.38636 -0.0215,0.75123 -0.0644,1.09462 l -22.92263,0 c 0.25755,3.47704 1.26632,6.11701 3.0263,7.9199 1.75997,1.80291 4.50724,2.70436 8.24185,2.70435 2.10336,10e-6 3.86333,-0.1717 5.27993,-0.51511 1.45946,-0.38633 2.55408,-0.7512 3.28386,-1.09462 l 0.83706,5.02237 c -0.72978,0.38634 -2.01757,0.79414 -3.86337,1.2234 -1.80292,0.42926 -3.86338,0.64389 -6.18138,0.64389 -2.919,0 -5.45165,-0.42926 -7.59795,-1.28778 -2.10339,-0.90145 -3.84191,-2.12485 -5.21554,-3.6702 -1.37364,-1.54534 -2.40387,-3.3697 -3.09069,-5.4731 -0.6439,-2.1463 -0.96584,-4.48578 -0.96584,-7.01844 m 22.98701,-3.28386 c 0.0429,-2.70433 -0.64392,-4.91503 -2.06046,-6.63211 -1.37366,-1.75995 -3.28388,-2.63993 -5.73065,-2.63996 -1.37366,3e-5 -2.59706,0.27905 -3.6702,0.83706 -1.03024,0.51514 -1.91023,1.20196 -2.63996,2.06046 -0.72976,0.85855 -1.30927,1.84585 -1.73852,2.96191 -0.38634,1.11611 -0.6439,2.25365 -0.77267,3.41264 l 16.61246,0" />
      <path
         inkscape:connector-curvature="0"
         id="path3925"
         style="font-variant:normal;font-stretch:normal;text-align:start;line-height:125%;writing-mode:lr-tb;text-anchor:start;fill:#f1f1f1;font-family:Ubuntu;-inkscape-font-specification:Ubuntu"
         d="m 252.77672,470.04479 c 1.37363,-0.34338 3.17653,-0.70825 5.40871,-1.09462 2.27507,-0.38631 4.89357,-0.57947 7.8555,-0.57951 2.14629,4e-5 3.9492,0.30052 5.40871,0.90145 1.45947,0.55808 2.68287,1.39514 3.6702,2.51119 0.30045,-0.2146 0.77264,-0.51508 1.41656,-0.90145 0.64387,-0.38631 1.438,-0.75118 2.38241,-1.09462 0.94435,-0.3863 1.99604,-0.70825 3.15508,-0.96584 1.15898,-0.30045 2.40384,-0.45069 3.73459,-0.45073 2.57553,4e-5 4.67892,0.38637 6.31016,1.15901 1.63115,0.72978 2.89747,1.78147 3.79897,3.15508 0.94433,1.37367 1.56676,3.00487 1.86729,4.8936 0.34336,1.88877 0.51507,3.94923 0.51512,6.18138 l 0,18.8017 -5.98821,0 0,-17.51391 c -5e-5,-1.97459 -0.10736,-3.67018 -0.32195,-5.08677 -0.17175,-1.41654 -0.53662,-2.59701 -1.09462,-3.54141 -0.51516,-0.94435 -1.2449,-1.63117 -2.18924,-2.06046 -0.90149,-0.47216 -2.08196,-0.70826 -3.54142,-0.70829 -2.01757,3e-5 -3.69169,0.27905 -5.02237,0.83706 -1.28782,0.51515 -2.16781,0.98734 -2.63997,1.41657 0.34338,1.11611 0.60094,2.33951 0.77268,3.6702 0.17167,1.33073 0.25752,2.72584 0.25755,4.18531 l 0,18.8017 -5.98821,0 0,-17.51391 c -2e-5,-1.97459 -0.10734,-3.67018 -0.32195,-5.08677 -0.21465,-1.41654 -0.60099,-2.59701 -1.15901,-3.54141 -0.51513,-0.94435 -1.24488,-1.63117 -2.18923,-2.06046 -0.90148,-0.47216 -2.06048,-0.70826 -3.47703,-0.70829 -0.60099,3e-5 -1.24488,0.0215 -1.93168,0.0644 -0.68684,0.043 -1.3522,0.10735 -1.99608,0.19317 -0.60098,0.043 -1.15902,0.10734 -1.67412,0.19317 -0.51513,0.0859 -0.85854,0.15027 -1.03023,0.19317 l 0,28.26694 -5.98821,0 0,-32.51664" />
      <path
         inkscape:connector-curvature="0"
         id="path3927"
         style="font-variant:normal;font-stretch:normal;text-align:start;line-height:125%;writing-mode:lr-tb;text-anchor:start;fill:#f1f1f1;font-family:Ubuntu;-inkscape-font-specification:Ubuntu"
         d="m 333.02704,472.29842 c -1.80293,5.75214 -3.6273,11.07499 -5.4731,15.96857 -1.84585,4.8936 -3.69168,9.65841 -5.53749,14.29444 l -6.24577,0 c -2.2751,-6.56771 -4.29264,-13.50029 -6.0526,-20.79777 -1.71706,-7.29744 -3.32679,-15.23879 -4.82921,-23.82408 l 6.56772,0 c 0.60096,3.34829 1.22339,6.69654 1.86729,10.04475 0.64389,3.34828 1.30924,6.61067 1.99607,9.78718 0.68681,3.13364 1.37363,6.13848 2.06046,9.01452 0.68681,2.87607 1.39509,5.5375 2.12485,7.98428 1.71704,-4.50724 3.5414,-9.44376 5.4731,-14.80956 1.93166,-5.40868 3.73456,-10.98909 5.40871,-16.74124 l 5.40871,0 c 1.67409,5.75215 3.49846,11.33256 5.4731,16.74124 1.97457,5.3658 3.8204,10.30232 5.53749,14.80956 0.68677,-2.40386 1.37359,-5.04382 2.06046,-7.91989 0.68677,-2.87604 1.35213,-5.88088 1.99607,-9.01452 0.68677,-3.17651 1.35213,-6.4389 1.99607,-9.78718 0.64385,-3.39114 1.26628,-6.76085 1.86729,-10.10914 l 6.37455,0 c -1.5454,8.58529 -3.19806,16.52664 -4.95798,23.82408 -1.7171,7.29748 -3.69171,14.23006 -5.92382,20.79777 l -6.24578,0 c -1.88879,-4.63603 -3.73462,-9.40084 -5.53748,-14.29444 -1.80294,-4.89358 -3.60584,-10.21643 -5.40871,-15.96857" />
      <path
         inkscape:connector-curvature="0"
         id="path3929"
         style="font-variant:normal;font-stretch:normal;text-align:start;line-height:125%;writing-mode:lr-tb;text-anchor:start;fill:#f1f1f1;font-family:Ubuntu;-inkscape-font-specification:Ubuntu"
         d="m 379.07854,468.37066 c 0.51509,4e-5 1.0946,0.043 1.73851,0.12878 0.6868,0.043 1.35216,0.12881 1.99607,0.25756 0.64387,0.0859 1.22338,0.1932 1.73852,0.32195 0.55801,0.0859 0.96581,0.17173 1.22339,0.25755 l -1.03023,5.21554 c -0.47221,-0.17167 -1.26634,-0.36484 -2.3824,-0.5795 -1.07318,-0.25753 -2.46828,-0.38631 -4.18531,-0.38634 -1.1161,3e-5 -2.23218,0.12881 -3.34825,0.38634 -1.07317,0.21466 -1.78145,0.3649 -2.12485,0.45073 l 0,28.13816 -5.98822,0 0,-32.06592 c 1.41656,-0.51508 3.17654,-0.98727 5.27993,-1.41656 2.10338,-0.47216 4.46432,-0.70825 7.08284,-0.70829" />
      <path
         inkscape:connector-curvature="0"
         id="path3931"
         style="font-variant:normal;font-stretch:normal;text-align:start;line-height:125%;writing-mode:lr-tb;text-anchor:start;fill:#f1f1f1;font-family:Ubuntu;-inkscape-font-specification:Ubuntu"
         d="m 397.60458,502.56143 -5.98822,0 0,-33.48248 5.98822,0 0,33.48248 m -3.02631,-39.53509 c -1.07316,4e-5 -1.99607,-0.34337 -2.76874,-1.03023 -0.72975,-0.7297 -1.09462,-1.69554 -1.09462,-2.89752 0,-1.20189 0.36487,-2.14627 1.09462,-2.83313 0.77267,-0.7297 1.69558,-1.09458 2.76874,-1.09462 1.07315,4e-5 1.9746,0.36492 2.70436,1.09462 0.77266,0.68686 1.159,1.63124 1.15901,2.83313 -1e-5,1.20198 -0.38635,2.16782 -1.15901,2.89752 -0.72976,0.68686 -1.63121,1.03027 -2.70436,1.03023" />
      <path
         inkscape:connector-curvature="0"
         id="path3933"
         style="font-variant:normal;font-stretch:normal;text-align:start;line-height:125%;writing-mode:lr-tb;text-anchor:start;fill:#f1f1f1;font-family:Ubuntu;-inkscape-font-specification:Ubuntu"
         d="m 413.56712,469.07895 12.68471,0 0,5.02237 -12.68471,0 0,15.45345 c -10e-6,1.67414 0.12876,3.06924 0.38633,4.18531 0.25755,1.07317 0.64388,1.93169 1.15901,2.57558 0.5151,0.60097 1.159,1.03024 1.93168,1.28779 0.77266,0.25756 1.67411,0.38634 2.70436,0.38633 1.80288,1e-5 3.24091,-0.19316 4.31409,-0.5795 1.11606,-0.42926 1.88873,-0.72974 2.31802,-0.90145 l 1.15901,4.95798 c -0.601,0.30049 -1.65269,0.66536 -3.15509,1.09462 -1.50243,0.47219 -3.21948,0.70828 -5.15115,0.70829 -2.2751,-1e-5 -4.16386,-0.27903 -5.66626,-0.83707 -1.45951,-0.60096 -2.63998,-1.48095 -3.54142,-2.63996 -0.90146,-1.15901 -1.54535,-2.57557 -1.93168,-4.2497 -0.34342,-1.71704 -0.51512,-3.69165 -0.51512,-5.92383 l 0,-29.87668 5.98822,-1.03023 0,10.3667" />
      <path
         inkscape:connector-curvature="0"
         id="path3935"
         style="font-variant:normal;font-stretch:normal;text-align:start;line-height:125%;writing-mode:lr-tb;text-anchor:start;fill:#f1f1f1;font-family:Ubuntu;-inkscape-font-specification:Ubuntu"
         d="m 431.37581,485.88458 c 0,-2.96189 0.42926,-5.53747 1.28779,-7.72673 0.85852,-2.23214 1.99606,-4.07797 3.41263,-5.53749 1.41656,-1.45946 3.04776,-2.55408 4.8936,-3.28386 1.84581,-0.72971 3.73457,-1.09458 5.66627,-1.09462 4.50723,4e-5 7.96279,1.4166 10.36669,4.2497 2.40384,2.79024 3.60577,7.0614 3.6058,12.81349 -3e-5,0.25758 -3e-5,0.60099 0,1.03023 -3e-5,0.38636 -0.0215,0.75123 -0.0644,1.09462 l -22.92263,0 c 0.25755,3.47704 1.26631,6.11701 3.0263,7.9199 1.75996,1.80291 4.50724,2.70436 8.24184,2.70435 2.10337,10e-6 3.86334,-0.1717 5.27994,-0.51511 1.45946,-0.38633 2.55408,-0.7512 3.28385,-1.09462 l 0.83707,5.02237 c -0.72978,0.38634 -2.01757,0.79414 -3.86337,1.2234 -1.80292,0.42926 -3.86338,0.64389 -6.18138,0.64389 -2.919,0 -5.45165,-0.42926 -7.59795,-1.28778 -2.1034,-0.90145 -3.84191,-2.12485 -5.21554,-3.6702 -1.37365,-1.54534 -2.40388,-3.3697 -3.09069,-5.4731 -0.6439,-2.1463 -0.96584,-4.48578 -0.96584,-7.01844 m 22.98701,-3.28386 c 0.0429,-2.70433 -0.64392,-4.91503 -2.06046,-6.63211 -1.37366,-1.75995 -3.28388,-2.63993 -5.73065,-2.63996 -1.37366,3e-5 -2.59706,0.27905 -3.6702,0.83706 -1.03024,0.51514 -1.91023,1.20196 -2.63996,2.06046 -0.72976,0.85855 -1.30927,1.84585 -1.73852,2.96191 -0.38634,1.11611 -0.6439,2.25365 -0.77267,3.41264 l 16.61246,0" />
      <path
         inkscape:connector-curvature="0"
         id="path3937"
         style="font-variant:normal;font-stretch:normal;text-align:start;line-height:125%;writing-mode:lr-tb;text-anchor:start;fill:#f1f1f1;font-family:Ubuntu;-inkscape-font-specification:Ubuntu"
         d="m 481.57336,468.37066 c 0.5151,4e-5 1.09461,0.043 1.73852,0.12878 0.6868,0.043 1.35215,0.12881 1.99607,0.25756 0.64387,0.0859 1.22338,0.1932 1.73851,0.32195 0.55802,0.0859 0.96582,0.17173 1.2234,0.25755 l -1.03023,5.21554 c -0.47221,-0.17167 -1.26635,-0.36484 -2.38241,-0.5795 -1.07317,-0.25753 -2.46828,-0.38631 -4.18531,-0.38634 -1.1161,3e-5 -2.23218,0.12881 -3.34825,0.38634 -1.07316,0.21466 -1.78145,0.3649 -2.12485,0.45073 l 0,28.13816 -5.98821,0 0,-32.06592 c 1.41656,-0.51508 3.17654,-0.98727 5.27993,-1.41656 2.10337,-0.47216 4.46432,-0.70825 7.08283,-0.70829" />
    </g>
    <g
       id="text3083"
       style="font-size:26.2019577px;font-style:normal;font-weight:normal;line-height:125%;letter-spacing:0px;word-spacing:0px;fill:#f1f1f1;fill-opacity:1;stroke:none;font-family:Sans"
       transform="matrix(0.37003175,0,0,0.39559908,97.908657,315.44394)">
      <path
         inkscape:connector-curvature="0"
         id="path3940"
         d="m 519.80636,451.81236 c -1.11735,10e-6 -2.15792,0.20045 -3.12172,0.60131 -0.96381,0.40089 -1.84659,1.00221 -2.64834,1.80394 -0.80176,0.80177 -1.40734,1.69308 -1.81674,2.67394 -0.40941,0.97234 -0.61411,2.01292 -0.6141,3.12171 -10e-6,1.10029 0.20469,2.1366 0.6141,3.10893 0.4094,0.96381 1.01498,1.84659 1.81674,2.64834 0.80175,0.80175 1.68453,1.40733 2.64834,1.81674 0.9638,0.40087 2.00437,0.60131 3.12172,0.60131 1.12585,0 2.17069,-0.20044 3.13451,-0.60131 0.97232,-0.40941 1.85937,-1.01499 2.66114,-1.81674 0.7932,-0.79322 1.38599,-1.67174 1.77836,-2.63555 0.40085,-0.9638 0.60129,-2.00437 0.60131,-3.12172 -2e-5,-1.13438 -0.20046,-2.18348 -0.60131,-3.1473 -0.4009,-0.97233 -0.99369,-1.85511 -1.77836,-2.64835 -0.80177,-0.80173 -1.68882,-1.40305 -2.66114,-1.80394 -0.96382,-0.40086 -2.00866,-0.6013 -3.13451,-0.60131 m 0,-1.31778 c 1.29644,2e-5 2.50333,0.23458 3.62068,0.70367 1.12585,0.46913 2.15363,1.16853 3.08334,2.0982 0.92967,0.92971 1.62481,1.95322 2.08541,3.07054 0.46056,1.11735 0.69085,2.33277 0.69087,3.64627 -2e-5,1.29646 -0.23031,2.50335 -0.69087,3.62068 -0.4606,1.10881 -1.15574,2.12806 -2.08541,3.05775 -0.92971,0.9297 -1.95749,1.6291 -3.08334,2.0982 -1.11735,0.46912 -2.32424,0.70367 -3.62068,0.70367 -1.29646,0 -2.50762,-0.23455 -3.63347,-0.70367 -1.11735,-0.4691 -2.14086,-1.1685 -3.07054,-2.0982 -0.9297,-0.92969 -1.62484,-1.94894 -2.08541,-3.05775 -0.46059,-1.11733 -0.69088,-2.32422 -0.69088,-3.62068 0,-1.3135 0.23029,-2.52892 0.69088,-3.64627 0.46057,-1.11732 1.15571,-2.14083 2.08541,-3.07054 0.92968,-0.92967 1.95319,-1.62907 3.07054,-2.0982 1.12585,-0.46909 2.33701,-0.70365 3.63347,-0.70367 m -0.34543,5.29669 -1.57366,0 0,3.53112 1.57366,0 c 0.9382,1e-5 1.59069,-0.13219 1.95747,-0.39661 0.37527,-0.2644 0.56291,-0.71645 0.56293,-1.35616 -2e-5,-0.64821 -0.18766,-1.10453 -0.56293,-1.36895 -0.37531,-0.27292 -1.0278,-0.40939 -1.95747,-0.4094 m 0.0896,-1.31778 c 1.50114,2e-5 2.62274,0.2559 3.36481,0.76764 0.74203,0.50324 1.11305,1.27087 1.11307,2.30291 -2e-5,0.73352 -0.22605,1.3391 -0.67808,1.81673 -0.44354,0.47765 -1.07471,0.78897 -1.8935,0.93396 0.20469,0.0682 0.44777,0.26868 0.72925,0.60131 0.28998,0.32412 0.63115,0.7975 1.02352,1.42013 l 1.75276,2.85304 -2.20055,0 -1.65042,-2.67393 c -0.50324,-0.8188 -0.91264,-1.33482 -1.22821,-1.54806 -0.30707,-0.22175 -0.69089,-0.33263 -1.15146,-0.33264 l -0.8444,0 0,4.55463 -1.98305,0 0,-10.69572 3.64626,0" />
    </g>
  </g>
</svg>
